<?xml version="1.0" encoding="UTF-8"?>
<svg version="1.1" xmlns="http://www.w3.org/2000/svg" width="320" height="80">
<path d="M0 0 C105.6 0 211.2 0 320 0 C320 26.4 320 52.8 320 80 C214.4 80 108.8 80 0 80 C0 53.6 0 27.2 0 0 Z " fill="#FEFEFE" transform="translate(0,0)"/>
<path d="M0 0 C3.13709492 2.02168339 4.77232056 3.68915494 6.8125 6.8125 C7.1328125 10.07421875 7.1328125 10.07421875 6.9375 13.5 C6.82801015 15.60172916 6.77231073 17.7083046 6.8125 19.8125 C8.71005144 22.16223818 8.71005144 22.16223818 11.9375 21.9375 C12.88625 21.89625 13.835 21.855 14.8125 21.8125 C14.54215366 19.37532742 14.54215366 19.37532742 13.8125 16.8125 C12.8225 16.1525 11.8325 15.4925 10.8125 14.8125 C12.5 14 12.5 14 14.8125 13.8125 C17.625 15.875 17.625 15.875 19.8125 18.8125 C19.8125 22.04798647 19.51615588 23.89860548 17.53125 26.4765625 C15.32160454 28.19405966 14.0805803 28.15476934 11.3125 28.0625 C10.15234375 28.03929687 10.15234375 28.03929687 8.96875 28.015625 C6.8125 27.8125 6.8125 27.8125 3.8125 26.8125 C6.71342502 28.74645001 7.70924737 29.11381941 11 29.4375 C12.258125 29.56125 13.51625 29.685 14.8125 29.8125 C13.4375 31.8125 13.4375 31.8125 10.8125 33.8125 C5.96804469 34.66211779 2.09008282 34.55775665 -2.1875 32.0625 C-4.00169017 30.02153605 -5.19354367 28.34257066 -6.1875 25.8125 C-6.6 26.575625 -7.0125 27.33875 -7.4375 28.125 C-9.21642456 30.85691986 -10.43982079 32.12199524 -13.1875 33.8125 C-15.625 34.2109375 -15.625 34.2109375 -18.1875 34.1875 C-19.4559375 34.19910156 -19.4559375 34.19910156 -20.75 34.2109375 C-23.62115432 33.7416142 -25.02191027 32.70739101 -27.1875 30.8125 C-26.8575 30.1525 -26.5275 29.4925 -26.1875 28.8125 C-25.053125 28.833125 -23.91875 28.85375 -22.75 28.875 C-19.37174326 29.22827477 -19.37174326 29.22827477 -18.1875 27.8125 C-19.21810547 27.86470703 -19.21810547 27.86470703 -20.26953125 27.91796875 C-21.17058594 27.94503906 -22.07164062 27.97210938 -23 28 C-24.33998047 28.05220703 -24.33998047 28.05220703 -25.70703125 28.10546875 C-28.1875 27.8125 -28.1875 27.8125 -29.9921875 26.5546875 C-32.16567206 23.38679823 -31.48506867 20.56186521 -31.1875 16.8125 C-29.1875 14.8125 -29.1875 14.8125 -25.5625 14.6875 C-23.891875 14.749375 -23.891875 14.749375 -22.1875 14.8125 C-24.1675 15.8025 -24.1675 15.8025 -26.1875 16.8125 C-25.8575 18.4625 -25.5275 20.1125 -25.1875 21.8125 C-23.2075 21.4825 -21.2275 21.1525 -19.1875 20.8125 C-18.17209888 16.71026415 -18.17209888 16.71026415 -19.1875 12.8125 C-19.76271409 8.59426335 -19.40326252 7.12415698 -16.9375 3.5625 C-11.74904993 -1.62595007 -7.10589166 -2.64729297 0 0 Z " fill="#F4650E" transform="translate(167.1875,19.1875)"/>
<path d="M0 0 C2.31 0 4.62 0 7 0 C5.125 3.875 5.125 3.875 4 5 C5.65 5.33 7.3 5.66 9 6 C9.66 4.02 10.32 2.04 11 0 C12.875 0.125 12.875 0.125 15 1 C16.25 4.0625 16.25 4.0625 17 7 C16.34 7 15.68 7 15 7 C15 6.34 15 5.68 15 5 C14.071875 5.495 14.071875 5.495 13.125 6 C8.73788488 7.40387684 4.56848573 7.15967523 0 7 C0 6.34 0 5.68 0 5 C2 3.375 2 3.375 4 2 C2.68 1.34 1.36 0.68 0 0 Z " fill="#465663" transform="translate(133,58)"/>
<path d="M0 0 C3.0625 0.125 3.0625 0.125 5.0625 1.125 C5.105221 2.79111905 5.10313832 4.45882885 5.0625 6.125 C4.0625 7.125 4.0625 7.125 0.5625 7.25 C-2.9375 7.125 -2.9375 7.125 -3.9375 6.125 C-4.0625 3.625 -4.0625 3.625 -3.9375 1.125 C-2.9375 0.125 -2.9375 0.125 0 0 Z " fill="#495966" transform="translate(163.9375,57.875)"/>
<path d="M0 0 C3.11511978 0.24593051 4.60407611 0.61727357 6.875 2.8125 C8 5 8 5 7.875 7.125 C7 9 7 9 4 11 C3.01 10.67 2.02 10.34 1 10 C1 9.34 1 8.68 1 8 C1.66 8 2.32 8 3 8 C2.72965366 5.56282742 2.72965366 5.56282742 2 3 C1.01 2.34 0.02 1.68 -1 1 C-0.67 0.67 -0.34 0.34 0 0 Z " fill="#FC781F" transform="translate(179,33)"/>
<path d="M0 0 C2.31 0 4.62 0 7 0 C7.68707555 2.49064888 8 4.37886292 8 7 C6.02 6.34 4.04 5.68 2 5 C2 5.66 2 6.32 2 7 C1.34 7 0.68 7 0 7 C0 4.69 0 2.38 0 0 Z " fill="#838D96" transform="translate(170,58)"/>
<path d="M0 0 C2.31 0 4.62 0 7 0 C7.5625 1.9375 7.5625 1.9375 8 4 C7 5 7 5 4.4375 5.0625 C3.2309375 5.0315625 3.2309375 5.0315625 2 5 C2 5.66 2 6.32 2 7 C1.34 7 0.68 7 0 7 C0 4.69 0 2.38 0 0 Z " fill="#68747F" transform="translate(151,58)"/>
<path d="M0 0 C0.99 0 1.98 0 3 0 C3.99 2.31 4.98 4.62 6 7 C3.03 7 0.06 7 -3 7 C-1.125 2.25 -1.125 2.25 0 0 Z " fill="#5A6873" transform="translate(182,58)"/>
<path d="M0 0 C0.6875 1.8125 0.6875 1.8125 1 4 C-0.1875 5.625 -0.1875 5.625 -2 7 C-4.26171875 7.29296875 -4.26171875 7.29296875 -6.6875 7.1875 C-7.49574219 7.16042969 -8.30398437 7.13335937 -9.13671875 7.10546875 C-9.75160156 7.07066406 -10.36648437 7.03585938 -11 7 C-11 6.01 -11 5.02 -11 4 C-9.9275 4.0825 -8.855 4.165 -7.75 4.25 C-3.95990735 4.36237217 -3.95990735 4.36237217 -1.5625 2 C-1.046875 1.34 -0.53125 0.68 0 0 Z " fill="#EE530C" transform="translate(185,40)"/>
<path d="M0 0 C1.69752187 0.25245197 3.38471545 0.57645775 5.0625 0.9375 C5.98160156 1.13214844 6.90070313 1.32679687 7.84765625 1.52734375 C8.91306641 1.76130859 8.91306641 1.76130859 10 2 C9.67 2.66 9.34 3.32 9 4 C5.7 4 2.4 4 -1 4 C-1 1 -1 1 0 0 Z " fill="#F1450D" transform="translate(169,49)"/>
<path d="M0 0 C1.98 0.495 1.98 0.495 4 1 C3.67 2.32 3.34 3.64 3 5 C1.68 4.67 0.36 4.34 -1 4 C-0.67 2.68 -0.34 1.36 0 0 Z " fill="#F0F1F2" transform="translate(163,59)"/>
<path d="M0 0 C0.99 0.33 1.98 0.66 3 1 C2.67 1.99 2.34 2.98 2 4 C3.32 4 4.64 4 6 4 C5.67 4.66 5.34 5.32 5 6 C4.01 5.67 3.02 5.34 2 5 C2 5.66 2 6.32 2 7 C1.34 7 0.68 7 0 7 C0 4.69 0 2.38 0 0 Z " fill="#364856" transform="translate(170,58)"/>
<path d="M0 0 C2.97 0 5.94 0 9 0 C8.67 0.99 8.34 1.98 8 3 C6.02 3.33 4.04 3.66 2 4 C1.34 2.68 0.68 1.36 0 0 Z " fill="#F96E37" transform="translate(140,48)"/>
</svg>
